<svg width="177" height="177" viewBox="0 0 177 177" fill="none" xmlns="http://www.w3.org/2000/svg">
<path d="M177 88.5009C177 137.376 137.378 177 88.5003 177C39.622 177 0 137.376 0 88.5009C0 39.623 39.6223 0 88.5003 0C137.378 0 177 39.623 177 88.5009Z" fill="#DD4814"/>
<path d="M21.0903 74.7921C13.7806 74.7921 7.85867 80.9283 7.85867 88.5011C7.85867 96.0707 13.7806 102.206 21.0903 102.206C28.3957 102.206 34.3178 96.0707 34.3178 88.5011C34.3178 80.9283 28.3957 74.7921 21.0903 74.7921ZM115.543 137.087C109.216 140.874 107.046 149.252 110.701 155.804C114.352 162.36 122.438 164.607 128.765 160.821C135.092 157.038 137.262 148.66 133.607 142.104C129.957 135.552 121.866 133.305 115.543 137.087ZM49.8248 88.5011C49.8248 74.9563 56.3185 62.9897 66.2543 55.7433L56.583 38.9598C45.0086 46.9758 36.3968 59.2249 32.8183 73.5708C36.994 77.1016 39.6671 82.476 39.6671 88.5007C39.6671 94.5216 36.994 99.8963 32.8183 103.427C36.3922 117.777 45.004 130.027 56.583 138.043L66.2543 121.255C56.3185 114.013 49.8248 102.047 49.8248 88.5011ZM88.4646 48.4623C108.651 48.4623 125.213 64.4985 126.951 84.9498L145.801 84.6616C144.874 69.5635 138.508 56.0095 128.726 46.0427C123.696 48.0116 117.886 47.7104 112.864 44.7109C107.834 41.703 104.68 36.6291 103.818 31.1212C98.9285 29.7233 93.7831 28.9579 88.4635 28.9579C79.3186 28.9579 70.6725 31.1835 62.996 35.12L72.188 52.1867C77.1327 49.8025 82.6494 48.4623 88.4646 48.4623ZM88.4646 128.536C82.6494 128.536 77.133 127.195 72.1884 124.812L62.9964 141.878C70.6732 145.819 79.3193 148.045 88.4646 148.045C93.7841 148.045 98.9295 147.279 103.818 145.877C104.68 140.369 107.835 135.3 112.865 132.287C117.89 129.283 123.697 128.987 128.727 130.956C138.508 120.989 144.874 107.435 145.802 92.3367L126.947 92.0485C125.213 112.505 108.652 128.536 88.4646 128.536ZM115.538 39.9068C121.866 43.6928 129.953 41.4502 133.603 34.8945C137.257 28.3384 135.093 19.9598 128.765 16.1728C122.438 12.3905 114.352 14.6378 110.696 21.1936C107.046 27.7458 109.215 36.1247 115.538 39.9068Z" fill="white"/>
</svg>
